<svg width="444" height="1009" viewBox="0 0 444 1009" fill="none" xmlns="http://www.w3.org/2000/svg">
<mask id="mask0" mask-type="alpha" maskUnits="userSpaceOnUse" x="0" y="0" width="444" height="1009">
<path d="M30.767 0H413.233C423.932 0 427.811 1.114 431.723 3.206C435.633 5.297 438.703 8.366 440.794 12.278C442.886 16.189 444 20.068 444 30.767V978.233C444 988.932 442.886 992.811 440.794 996.723C438.703 1000.63 435.634 1003.7 431.722 1005.79C427.811 1007.89 423.932 1009 413.233 1009H30.767C20.068 1009 16.189 1007.89 12.277 1005.79C8.367 1003.7 5.297 1000.63 3.206 996.722C1.114 992.811 0 988.932 0 978.233V30.767C0 20.068 1.114 16.189 3.206 12.277C5.297 8.367 8.366 5.297 12.278 3.206C16.189 1.114 20.068 0 30.767 0Z" fill="white"/>
</mask>
<g mask="url(#mask0)">
<path d="M30.767 0H413.233C423.932 0 427.811 1.114 431.723 3.206C435.633 5.297 438.703 8.366 440.794 12.278C442.886 16.189 444 20.068 444 30.767V978.233C444 988.932 442.886 992.811 440.794 996.723C438.703 1000.63 435.634 1003.7 431.722 1005.79C427.811 1007.89 423.932 1009 413.233 1009H30.767C20.068 1009 16.189 1007.89 12.277 1005.79C8.367 1003.7 5.297 1000.63 3.206 996.722C1.114 992.811 0 988.932 0 978.233V30.767C0 20.068 1.114 16.189 3.206 12.277C5.297 8.367 8.366 5.297 12.278 3.206C16.189 1.114 20.068 0 30.767 0Z" fill="#E93B47"/>
<path d="M266.833 -88.531H201.79C197.55 -86.271 149.36 -48.643 146.627 -27.541C146.627 -27.443 38.967 132.688 -96.257 124.933C-127.354 123.147 -159.81 106.059 -186 95.528V198.666C-121.59 249.402 -33.939 275.829 47.827 253.448C238.84 201.17 78.29 122.755 236.37 36.17C266.446 19.7 289.994 4.12999 308 -10.557V-61.303C308 -68.525 303.663 -75.45 295.943 -80.556C288.223 -85.662 277.751 -88.531 266.833 -88.531V-88.531Z" fill="#F85F6B"/>
<path d="M-32.883 55.977C-89.075 63.36 -142.839 49.149 -186 23.257V148.025C-159.813 158.689 -130.247 165.179 -99.629 166.985C35.567 174.751 157.353 88.014 172.376 -26.753V-27.042C174.982 -48.175 189.876 -67.812 213.916 -81.812C217.726 -83.994 221.76 -86.268 226 -88.532H76.604C-69.557 -24.183 160.57 30.555 -32.883 55.978V55.977Z" fill="#FF7884"/>
<path d="M-186 -61.266V59.88C-142.851 85.77 -90.296 98.804 -34.12 91.42C159.279 65.997 45.88 -24.185 192 -88.53H-144.851C-167.577 -88.53 -186 -76.323 -186 -61.265V-61.266Z" fill="#FFA1AD"/>
<path d="M28.75 1030.47H94.625C86.657 991.392 76.87 962.554 176.775 965.294C341.85 969.774 270.55 801.106 325.575 669.009C355.799 596.355 400.975 609.177 455 604.827V496.469C401.447 498.215 312.47 503.686 237.225 604.826C125.625 754.835 223.275 804.091 183.75 862.303C155.85 903.426 45.52 920.284 -10 853.257V993.15C-10 1003.05 -5.919 1012.54 1.348 1019.54C8.615 1026.54 18.472 1030.47 28.75 1030.47V1030.47Z" fill="#F85F6B"/>
<path d="M355.003 838.532C355.003 734.147 383.467 687.21 455 686.903V568.47C400.962 572.825 334.071 594.022 303.84 666.735C248.8 798.943 320.893 949.077 155.779 944.595C55.85 941.885 46.214 990.905 54.179 1029.99H416.237C423.214 1031.99 429.625 1027.1 431.741 1026.76L440.268 982.69C382.596 963.399 355.003 928.494 355.003 838.533V838.532Z" fill="#FF7884"/>
<path d="M326 840.867C326 930.85 368.87 1006.18 426.344 1025.47L455 988.426V651.469C383.72 651.783 326 736.456 326 840.867V840.867Z" fill="#FFA1AD"/>
</g>
</svg>
