<svg xmlns="http://www.w3.org/2000/svg" xmlns:xlink="http://www.w3.org/1999/xlink" width="444" height="1009" viewBox="0 0 444 1009">
    <defs>
        <path id="q1h3gg564a" d="M30.767 0h382.466c10.699 0 14.578 1.114 18.49 3.206 3.91 2.091 6.98 5.16 9.071 9.072 2.092 3.911 3.206 7.79 3.206 18.489v947.466c0 10.699-1.114 14.578-3.206 18.49-2.091 3.91-5.16 6.98-9.072 9.071-3.911 2.092-7.79 3.206-18.489 3.206H30.767c-10.699 0-14.578-1.114-18.49-3.206-3.91-2.091-6.98-5.16-9.071-9.072C1.114 992.811 0 988.932 0 978.233V30.767c0-10.699 1.114-14.578 3.206-18.49 2.091-3.91 5.16-6.98 9.072-9.071C16.189 1.114 20.068 0 30.767 0z"/>
    </defs>
    <g fill="none" fill-rule="evenodd">
        <g>
            <g>
                <g transform="translate(-719 -2264) translate(275 2264) translate(444)">
                    <mask id="ni49bkf1ob" fill="#fff">
                        <use xlink:href="#q1h3gg564a"/>
                    </mask>
                    <use fill="#2E2A66" fill-rule="nonzero" xlink:href="#q1h3gg564a"/>
                    <path fill="#3E3989" fill-rule="nonzero" d="M266.833-88.531H201.79c-4.24 2.26-52.43 39.888-55.163 60.99 0 .098-107.66 160.229-242.884 152.474-31.097-1.786-63.553-18.874-89.743-29.405v103.138c64.41 50.736 152.061 77.163 233.827 54.782C238.84 201.17 78.29 122.755 236.37 36.17 266.446 19.7 289.994 4.13 308-10.557v-50.746c0-7.222-4.337-14.147-12.057-19.253-7.72-5.106-18.192-7.975-29.11-7.975z" mask="url(#ni49bkf1ob)"/>
                    <path fill="#5B54B8" fill-rule="nonzero" d="M-32.883 55.977C-89.075 63.36-142.839 49.149-186 23.257v124.768c26.187 10.664 55.753 17.154 86.371 18.96 135.196 7.766 256.982-78.971 272.005-193.738v-.289c2.606-21.133 17.5-40.77 41.54-54.77 3.81-2.182 7.844-4.456 12.084-6.72H76.604C-69.557-24.183 160.57 30.555-32.883 55.978z" mask="url(#ni49bkf1ob)"/>
                    <path fill="#837CE6" fill-rule="nonzero" d="M-186-61.266V59.88c43.149 25.89 95.704 38.924 151.88 31.54C159.279 65.997 45.88-24.185 192-88.53h-336.851c-22.726 0-41.149 12.207-41.149 27.265z" mask="url(#ni49bkf1ob)"/>
                    <path fill="#3E3989" fill-rule="nonzero" d="M28.75 1030.469h65.875c-7.968-39.077-17.755-67.915 82.15-65.175 165.075 4.48 93.775-164.188 148.8-296.285 30.224-72.654 75.4-59.832 129.425-64.182V496.469c-53.553 1.746-142.53 7.217-217.775 108.357-111.6 150.009-13.95 199.265-53.475 257.477-27.9 41.123-138.23 57.981-193.75-9.046V993.15c0 9.897 4.081 19.39 11.348 26.388 7.267 6.999 17.124 10.93 27.402 10.93z" mask="url(#ni49bkf1ob)"/>
                    <path fill="#5B54B8" fill-rule="nonzero" d="M355.003 838.532c0-104.385 28.464-151.322 99.997-151.629V568.47c-54.038 4.355-120.929 25.552-151.16 98.265-55.04 132.208 17.053 282.342-148.061 277.86-99.929-2.71-109.565 46.31-101.6 85.398h362.058c6.977 1.995 13.388-2.89 15.504-3.234l8.527-44.069c-57.672-19.291-85.265-54.196-85.265-144.157z" mask="url(#ni49bkf1ob)"/>
                    <path fill="#837CE6" fill-rule="nonzero" d="M326 840.867c0 89.983 42.87 165.31 100.344 184.602L455 988.426V651.469c-71.28.314-129 84.987-129 189.398z" mask="url(#ni49bkf1ob)"/>
                </g>
            </g>
        </g>
    </g>
</svg>
