<svg width="100" height="100" xmlns="http://www.w3.org/2000/svg">

 <g>
  <title>background</title>
  <rect fill="none" id="canvas_background" height="402" width="582" y="-1" x="-1"/>
 </g>
 <g>
  <title>Layer 1</title>
  <path fill="#e93b47" id="svg_1" d="m44.932,66.549c-0.014,-0.091 -0.037,-0.182 -0.067,-0.271c-0.008,-0.022 -0.009,-0.047 -0.017,-0.069l-3.193,-8.403c-0.248,-0.652 -0.873,-1.083 -1.57,-1.083l-6.387,0l-6.386,0l-6.385,0l-6.387,0c-0.698,0 -1.323,0.431 -1.571,1.083l-3.193,8.403c-0.009,0.023 -0.009,0.047 -0.017,0.069c-0.03,0.089 -0.053,0.18 -0.067,0.271c-0.007,0.045 -0.011,0.091 -0.014,0.138c-0.003,0.04 -0.012,0.079 -0.012,0.119l0,2.941c0,0.095 0.01,0.186 0.014,0.28c-0.004,0.047 -0.014,0.092 -0.014,0.14l0,18.486c0,0.929 0.753,1.681 1.681,1.681l17.814,0l6.386,0l7.731,0c0.928,0 1.681,-0.752 1.681,-1.681l0,-18.486c0,-0.048 -0.01,-0.094 -0.014,-0.14c0.004,-0.093 0.014,-0.185 0.014,-0.28l0,-2.941c0,-0.041 -0.009,-0.079 -0.012,-0.119c-0.004,-0.047 -0.008,-0.093 -0.015,-0.138zm-3.335,20.423l-4.369,0l0,-6.722c0,-0.929 -0.752,-1.681 -1.681,-1.681l-6.386,0c-0.928,0 -1.681,0.752 -1.681,1.681l0,6.722l-14.452,0l0,-12.185c0.647,0.271 1.356,0.421 2.101,0.421l0.42,0c1.468,0 2.799,-0.585 3.781,-1.53c0.982,0.946 2.314,1.53 3.781,1.53l0.42,0c1.467,0 2.799,-0.585 3.781,-1.53c0.982,0.946 2.314,1.53 3.781,1.53l0.42,0c1.467,0 2.799,-0.585 3.781,-1.53c0.982,0.946 2.314,1.53 3.781,1.53l0.42,0c0.744,0 1.454,-0.151 2.101,-0.421l0,12.185l0.001,0zm-7.73,0l-3.025,0l0,-5.042l3.025,0l0,5.042zm-14.97,-26.889l-0.313,1.648l-0.645,3.394l0,0l-4.155,0l1.916,-5.042l3.197,0zm16.831,0l3.197,0l1.916,5.042l-4.155,0l-0.645,-3.394l-0.313,-1.648zm-22.7,9.663l0,-1.26l4.622,0l0,1.26c0,0.144 -0.015,0.284 -0.042,0.42c-0.195,0.958 -1.043,1.681 -2.058,1.681l-0.42,0c-1.015,0 -1.863,-0.723 -2.058,-1.681c-0.03,-0.135 -0.044,-0.275 -0.044,-0.42zm8.025,0.421c-0.028,-0.136 -0.042,-0.276 -0.042,-0.42l0,-1.26l4.622,0l0,1.26c0,0.144 -0.015,0.284 -0.043,0.42c-0.195,0.958 -1.043,1.681 -2.058,1.681l-0.42,0c-1.016,-0.001 -1.864,-0.723 -2.059,-1.681zm7.982,0c-0.028,-0.136 -0.042,-0.276 -0.042,-0.42l0,-1.26l4.622,0l0,1.26c0,0.144 -0.015,0.284 -0.043,0.42c-0.195,0.958 -1.043,1.681 -2.058,1.681l-0.42,0c-1.015,-0.001 -1.863,-0.723 -2.059,-1.681zm12.562,-0.421c0,0.144 -0.014,0.284 -0.042,0.42c-0.195,0.958 -1.043,1.681 -2.058,1.681l-0.42,0c-1.015,0 -1.863,-0.723 -2.058,-1.681c-0.028,-0.136 -0.042,-0.276 -0.042,-0.42l0,-1.26l4.621,0l0,1.26l-0.001,0zm-9.29,-9.663l0,0l0.621,3.266l0.337,1.775l-4.272,0l0,-5.042l3.314,0l0,0.001zm-6.675,5.042l-4.272,0l0.308,-1.619l0.65,-3.423l3.314,0l0,5.042zm-1.177,15.125c0,0.928 -0.752,1.68 -1.68,1.68l-5.042,0c-0.928,0 -1.681,-0.752 -1.681,-1.68c0,-0.929 0.753,-1.681 1.681,-1.681l5.042,0c0.928,0.001 1.68,0.752 1.68,1.681zm65.852,-13.701c-0.014,-0.091 -0.037,-0.182 -0.067,-0.271c-0.008,-0.022 -0.009,-0.047 -0.017,-0.069l-3.193,-8.403c-0.247,-0.652 -0.873,-1.083 -1.57,-1.083l-6.387,0l-6.386,0l-6.385,0l-6.387,0c-0.697,0 -1.323,0.431 -1.571,1.083l-3.193,8.403c-0.009,0.023 -0.01,0.047 -0.017,0.069c-0.03,0.089 -0.053,0.18 -0.067,0.271c-0.007,0.045 -0.011,0.091 -0.014,0.138c-0.003,0.04 -0.012,0.079 -0.012,0.119l0,2.941c0,0.095 0.009,0.186 0.014,0.28c-0.004,0.047 -0.014,0.092 -0.014,0.14l0,18.486c0,0.929 0.752,1.681 1.68,1.681l17.814,0l6.385,0l7.731,0c0.928,0 1.681,-0.752 1.681,-1.681l0,-18.486c0,-0.048 -0.011,-0.094 -0.014,-0.14c0.004,-0.093 0.014,-0.185 0.014,-0.28l0,-2.941c0,-0.041 -0.009,-0.079 -0.012,-0.119c-0.002,-0.047 -0.006,-0.093 -0.013,-0.138zm-3.335,20.423l-4.369,0l0,-6.722c0,-0.929 -0.752,-1.681 -1.681,-1.681l-6.385,0c-0.928,0 -1.681,0.752 -1.681,1.681l0,6.722l-14.453,0l0,-12.185c0.647,0.271 1.356,0.421 2.1,0.421l0.42,0c1.467,0 2.799,-0.585 3.781,-1.53c0.982,0.946 2.314,1.53 3.781,1.53l0.42,0c1.467,0 2.799,-0.585 3.781,-1.53c0.982,0.946 2.314,1.53 3.781,1.53l0.42,0c1.467,0 2.799,-0.585 3.781,-1.53c0.982,0.946 2.314,1.53 3.781,1.53l0.42,0c0.744,0 1.454,-0.151 2.101,-0.421l0,12.185l0.002,0zm-7.73,0l-3.025,0l0,-5.042l3.025,0l0,5.042zm-14.97,-26.889l-0.313,1.648l-0.645,3.394l0,0l-4.155,0l1.916,-5.042l3.197,0zm16.831,0l3.197,0l1.916,5.042l-4.155,0l-0.645,-3.394l-0.313,-1.648zm-22.7,9.663l0,-1.26l4.622,0l0,1.26c0,0.144 -0.015,0.284 -0.042,0.42c-0.195,0.958 -1.044,1.681 -2.059,1.681l-0.42,0c-1.015,0 -1.863,-0.723 -2.058,-1.681c-0.029,-0.135 -0.043,-0.275 -0.043,-0.42zm8.025,0.421c-0.027,-0.136 -0.042,-0.276 -0.042,-0.42l0,-1.26l4.622,0l0,1.26c0,0.144 -0.015,0.284 -0.043,0.42c-0.195,0.958 -1.043,1.681 -2.058,1.681l-0.42,0c-1.016,-0.001 -1.864,-0.723 -2.059,-1.681zm7.982,0c-0.028,-0.136 -0.042,-0.276 -0.042,-0.42l0,-1.26l4.622,0l0,1.26c0,0.144 -0.015,0.284 -0.043,0.42c-0.195,0.958 -1.043,1.681 -2.058,1.681l-0.42,0c-1.015,-0.001 -1.863,-0.723 -2.059,-1.681zm12.562,-0.421c0,0.144 -0.014,0.284 -0.042,0.42c-0.195,0.958 -1.043,1.681 -2.058,1.681l-0.42,0c-1.015,0 -1.863,-0.723 -2.058,-1.681c-0.027,-0.136 -0.042,-0.276 -0.042,-0.42l0,-1.26l4.621,0l0,1.26l-0.001,0zm-9.29,-9.663l0,0l0.621,3.266l0.337,1.775l-4.272,0l0,-5.042l3.314,0l0,0.001zm-6.675,5.042l-4.272,0l0.308,-1.619l0.65,-3.423l3.314,0l0,5.042zm-1.177,15.125c0,0.928 -0.752,1.68 -1.68,1.68l-5.042,0c-0.928,0 -1.681,-0.752 -1.681,-1.68c0,-0.929 0.753,-1.681 1.681,-1.681l5.042,0c0.928,0.001 1.68,0.752 1.68,1.681zm-24.898,-60.757c-0.014,-0.091 -0.037,-0.182 -0.067,-0.271c-0.008,-0.023 -0.009,-0.047 -0.017,-0.07l-3.193,-8.402c-0.248,-0.652 -0.873,-1.083 -1.57,-1.083l-6.387,0l-6.386,0l-6.385,0l-6.387,0c-0.698,0 -1.323,0.432 -1.571,1.083l-3.193,8.402c-0.009,0.023 -0.009,0.047 -0.017,0.07c-0.03,0.089 -0.053,0.179 -0.067,0.271c-0.007,0.045 -0.011,0.091 -0.014,0.137c-0.003,0.04 -0.012,0.079 -0.012,0.12l0,2.941c0,0.094 0.01,0.186 0.014,0.279c-0.004,0.047 -0.014,0.092 -0.014,0.141l0,18.486c0,0.929 0.753,1.68 1.681,1.68l17.814,0l6.386,0l7.731,0c0.928,0 1.681,-0.751 1.681,-1.68l0,-18.486c0,-0.048 -0.01,-0.094 -0.014,-0.141c0.004,-0.094 0.014,-0.185 0.014,-0.279l0,-2.941c0,-0.041 -0.009,-0.08 -0.012,-0.12c-0.004,-0.046 -0.008,-0.092 -0.015,-0.137zm-3.335,20.424l-4.369,0l0,-6.722c0,-0.929 -0.752,-1.68 -1.681,-1.68l-6.386,0c-0.928,0 -1.681,0.751 -1.681,1.68l0,6.722l-14.452,0l0,-12.186c0.647,0.271 1.356,0.421 2.101,0.421l0.42,0c1.468,0 2.799,-0.585 3.781,-1.529c0.982,0.945 2.314,1.529 3.781,1.529l0.42,0c1.467,0 2.799,-0.585 3.781,-1.529c0.982,0.945 2.314,1.529 3.781,1.529l0.42,0c1.467,0 2.799,-0.585 3.781,-1.529c0.982,0.945 2.314,1.529 3.781,1.529l0.42,0c0.744,0 1.454,-0.151 2.101,-0.421l0,12.186l0.001,0zm-7.73,0l-3.025,0l0,-5.041l3.025,0l0,5.041zm-14.97,-26.889l-0.308,1.619l-0.65,3.423l0,0l-4.155,0l1.916,-5.042l3.197,0zm16.831,0l3.197,0l1.916,5.042l-4.155,0l-0.651,-3.423l-0.307,-1.619zm-22.7,9.663l0,-1.261l4.622,0l0,1.261c0,0.144 -0.015,0.284 -0.042,0.42c-0.195,0.958 -1.043,1.68 -2.058,1.68l-0.42,0c-1.015,0 -1.863,-0.723 -2.058,-1.68c-0.03,-0.135 -0.044,-0.276 -0.044,-0.42zm8.025,0.42c-0.028,-0.136 -0.042,-0.277 -0.042,-0.42l0,-1.261l4.622,0l0,1.261c0,0.144 -0.015,0.284 -0.043,0.42c-0.195,0.958 -1.043,1.68 -2.058,1.68l-0.42,0c-1.016,0.001 -1.864,-0.722 -2.059,-1.68zm7.982,0c-0.028,-0.136 -0.042,-0.277 -0.042,-0.42l0,-1.261l4.622,0l0,1.261c0,0.144 -0.015,0.284 -0.043,0.42c-0.195,0.958 -1.043,1.68 -2.058,1.68l-0.42,0c-1.015,0.001 -1.863,-0.722 -2.059,-1.68zm12.562,-0.42c0,0.144 -0.014,0.284 -0.042,0.42c-0.195,0.958 -1.043,1.68 -2.058,1.68l-0.42,0c-1.015,0 -1.863,-0.723 -2.058,-1.68c-0.028,-0.136 -0.042,-0.277 -0.042,-0.42l0,-1.261l4.621,0l0,1.261l-0.001,0zm-9.29,-9.663l0,0l0.621,3.266l0.337,1.775l-4.272,0l0,-5.042l3.314,0l0,0.001zm-6.675,5.041l-4.272,0l0.308,-1.619l0.65,-3.423l3.314,0l0,5.042zm-1.177,15.125c0,0.929 -0.752,1.681 -1.68,1.681l-5.042,0c-0.928,0 -1.681,-0.752 -1.681,-1.681c0,-0.929 0.753,-1.68 1.681,-1.68l5.042,0c0.928,0 1.68,0.751 1.68,1.68zm65.879,-13.444c0,-0.041 -0.009,-0.08 -0.012,-0.12c-0.003,-0.046 -0.007,-0.092 -0.014,-0.137c-0.014,-0.091 -0.037,-0.182 -0.067,-0.271c-0.008,-0.023 -0.009,-0.047 -0.017,-0.07l-3.194,-8.402c-0.247,-0.652 -0.873,-1.083 -1.57,-1.083l-6.387,0l-6.386,0l-6.385,0l-6.387,0c-0.697,0 -1.323,0.432 -1.571,1.083l-3.193,8.402c-0.009,0.023 -0.01,0.047 -0.017,0.07c-0.03,0.089 -0.053,0.179 -0.067,0.271c-0.007,0.045 -0.011,0.091 -0.014,0.137c-0.003,0.04 -0.012,0.079 -0.012,0.12l0,2.941c0,0.094 0.009,0.186 0.014,0.279c-0.004,0.047 -0.014,0.092 -0.014,0.141l0,18.486c0,0.929 0.752,1.68 1.68,1.68l17.814,0l6.385,0l7.731,0c0.928,0 1.681,-0.751 1.681,-1.68l0,-18.486c0,-0.048 -0.011,-0.094 -0.014,-0.141c0.004,-0.094 0.014,-0.185 0.014,-0.279l0,-2.941l0.002,0zm-3.362,20.167l-4.369,0l0,-6.722c0,-0.929 -0.752,-1.68 -1.681,-1.68l-6.385,0c-0.928,0 -1.681,0.751 -1.681,1.68l0,6.722l-14.453,0l0,-12.186c0.647,0.271 1.356,0.421 2.1,0.421l0.42,0c1.467,0 2.799,-0.585 3.781,-1.529c0.982,0.945 2.314,1.529 3.781,1.529l0.42,0c1.467,0 2.799,-0.585 3.781,-1.529c0.982,0.945 2.314,1.529 3.781,1.529l0.42,0c1.467,0 2.799,-0.585 3.781,-1.529c0.982,0.945 2.314,1.529 3.781,1.529l0.42,0c0.744,0 1.454,-0.151 2.101,-0.421l0,12.186l0.002,0zm-7.73,0l-3.025,0l0,-5.041l3.025,0l0,5.041zm-14.97,-26.889l-0.308,1.619l-0.65,3.423l0,0l-4.155,0l1.916,-5.042l3.197,0zm16.831,0l3.197,0l1.916,5.042l-4.155,0l-0.651,-3.423l-0.307,-1.619zm-22.7,9.663l0,-1.261l4.622,0l0,1.261c0,0.144 -0.015,0.284 -0.042,0.42c-0.195,0.958 -1.044,1.68 -2.059,1.68l-0.42,0c-1.015,0 -1.863,-0.723 -2.058,-1.68c-0.029,-0.135 -0.043,-0.276 -0.043,-0.42zm8.025,0.42c-0.027,-0.136 -0.042,-0.277 -0.042,-0.42l0,-1.261l4.622,0l0,1.261c0,0.144 -0.015,0.284 -0.043,0.42c-0.195,0.958 -1.043,1.68 -2.058,1.68l-0.42,0c-1.016,0.001 -1.864,-0.722 -2.059,-1.68zm7.982,0c-0.028,-0.136 -0.042,-0.277 -0.042,-0.42l0,-1.261l4.622,0l0,1.261c0,0.144 -0.015,0.284 -0.043,0.42c-0.195,0.958 -1.043,1.68 -2.058,1.68l-0.42,0c-1.015,0.001 -1.863,-0.722 -2.059,-1.68zm12.562,-0.42c0,0.144 -0.014,0.284 -0.042,0.42c-0.195,0.958 -1.043,1.68 -2.058,1.68l-0.42,0c-1.015,0 -1.863,-0.723 -2.058,-1.68c-0.027,-0.136 -0.042,-0.277 -0.042,-0.42l0,-1.261l4.621,0l0,1.261l-0.001,0zm-9.29,-9.663l0,0l0.621,3.266l0.337,1.775l-4.272,0l0,-5.042l3.314,0l0,0.001zm-6.675,5.041l-4.272,0l0.308,-1.619l0.65,-3.423l3.314,0l0,5.042zm-1.177,15.125c0,0.929 -0.752,1.681 -1.68,1.681l-5.042,0c-0.928,0 -1.681,-0.752 -1.681,-1.681c0,-0.929 0.753,-1.68 1.681,-1.68l5.042,0c0.928,0 1.68,0.751 1.68,1.68zm-31.594,18.487c-0.925,0 -1.68,-0.756 -1.68,-1.68s0.756,-1.681 1.68,-1.681c0.924,0 1.681,0.757 1.681,1.681s-0.757,1.68 -1.681,1.68zm-6.722,0c-0.925,0 -1.68,-0.756 -1.68,-1.68s0.756,-1.681 1.68,-1.681c0.924,0 1.681,0.757 1.681,1.681s-0.757,1.68 -1.681,1.68zm-6.722,0c-0.925,0 -1.681,-0.756 -1.681,-1.68s0.756,-1.681 1.681,-1.681c0.924,0 1.68,0.757 1.68,1.681s-0.756,1.68 -1.68,1.68zm-6.723,0c-0.925,0 -1.681,-0.756 -1.681,-1.68s0.756,-1.681 1.681,-1.681c0.924,0 1.681,0.757 1.681,1.681s-0.757,1.68 -1.681,1.68zm33.612,-33.612c0,0.924 -0.757,1.681 -1.681,1.681c-0.925,0 -1.68,-0.757 -1.68,-1.681s0.756,-1.68 1.68,-1.68c0.924,0 1.681,0.757 1.681,1.68zm0,6.723c0,0.924 -0.757,1.681 -1.681,1.681c-0.925,0 -1.68,-0.757 -1.68,-1.681s0.756,-1.68 1.68,-1.68c0.924,-0.001 1.681,0.756 1.681,1.68zm0,13.444c0,0.924 -0.757,1.68 -1.681,1.68c-0.925,0 -1.68,-0.756 -1.68,-1.68s0.756,-1.681 1.68,-1.681c0.924,0.001 1.681,0.757 1.681,1.681zm0,-6.722c0,0.923 -0.757,1.68 -1.681,1.68c-0.925,0 -1.68,-0.757 -1.68,-1.68c0,-0.924 0.756,-1.681 1.68,-1.681c0.924,0 1.681,0.757 1.681,1.681zm0,36.972c0,0.924 -0.757,1.68 -1.681,1.68c-0.925,0 -1.68,-0.756 -1.68,-1.68c0,-0.924 0.756,-1.681 1.68,-1.681c0.924,0 1.681,0.757 1.681,1.681zm0,-6.722c0,0.924 -0.757,1.68 -1.681,1.68c-0.925,0 -1.68,-0.757 -1.68,-1.68c0,-0.924 0.756,-1.681 1.68,-1.681c0.924,0 1.681,0.757 1.681,1.681zm0,13.444c0,0.924 -0.757,1.681 -1.681,1.681c-0.925,0 -1.68,-0.757 -1.68,-1.681c0,-0.924 0.756,-1.681 1.68,-1.681c0.924,0.001 1.681,0.757 1.681,1.681zm0,6.722c0,0.924 -0.757,1.681 -1.681,1.681c-0.925,0 -1.68,-0.757 -1.68,-1.681c0,-0.924 0.756,-1.68 1.68,-1.68c0.924,0 1.681,0.757 1.681,1.68zm30.25,-30.249c-0.925,0 -1.681,-0.756 -1.681,-1.68s0.756,-1.681 1.681,-1.681c0.924,0 1.68,0.757 1.68,1.681s-0.756,1.68 -1.68,1.68zm-20.167,0c-0.924,0 -1.68,-0.756 -1.68,-1.68s0.756,-1.681 1.68,-1.681c0.924,0 1.681,0.757 1.681,1.681s-0.757,1.68 -1.681,1.68zm6.722,0c-0.924,0 -1.68,-0.756 -1.68,-1.68s0.756,-1.681 1.68,-1.681c0.924,0 1.681,0.757 1.681,1.681s-0.757,1.68 -1.681,1.68zm6.723,0c-0.925,0 -1.681,-0.756 -1.681,-1.68s0.756,-1.681 1.681,-1.681c0.924,0 1.68,0.757 1.68,1.681s-0.757,1.68 -1.68,1.68z"/>
 </g>
</svg>