<svg xmlns="http://www.w3.org/2000/svg" width="59" height="72" viewBox="0 0 59 72">
    <g fill="none" fill-rule="evenodd">
        <g fill="#FF9401" fill-rule="nonzero">
            <g>
                <g>
                    <path d="M51.942 0c3.577 0 6.486 2.91 6.486 6.488v.815c0 .773-.627 1.4-1.4 1.4h-.051c-.76-.017-1.37-.637-1.37-1.4 0-.083.007-.165.021-.244v-.571c0-2.034-1.653-3.688-3.686-3.688H7.407v4.688c2.355 0 4.526 1.432 4.526 4.002 0 2.181-1.822 4.002-4.003 4.002h-.523v8.383h.523c1.173 0 2.229.507 2.961 1.313.647.71 1.042 1.654 1.042 2.689 0 1.07-.416 2.074-1.172 2.83-.756.756-1.762 1.172-2.83 1.172h-.524v8.382h.523c2.207 0 4.003 1.796 4.003 4.003 0 2.18-1.828 4.001-4.003 4.001h-.523v8.383h.523c2.207 0 4.003 1.796 4.003 4.003 0 2.181-1.824 4.001-4.003 4.001h-.523v4.228h44.535c2.032 0 3.686-1.654 3.686-3.688V19.866c-.014-.079-.02-.16-.02-.243 0-.763.609-1.383 1.367-1.4h.053c.773 0 1.4.626 1.4 1.4v45.57c0 3.577-2.91 6.487-6.486 6.487H6.007c-.774 0-1.4-.627-1.4-1.4v-5.628h-.525C1.876 64.652.08 62.857.08 60.65c0-2.206 1.796-4.002 4.002-4.002h.525v-8.383h-.525C1.876 48.265.08 46.47.08 44.264c0-2.207 1.796-4.002 4.002-4.002h.525v-8.383h-.525c-2.206 0-4.002-1.795-4.002-4.002s1.796-4.002 4.002-4.002h.525v-8.383h-.525C1.876 15.492.08 13.697.08 11.49c0-2.206 1.796-4.002 4.002-4.002h.525V1.4c0-.773.626-1.4 1.4-1.4zM39.698 53.498c.579-.001 1.054.46 1.06 1.04l.067 6.982c0 .562-.317 1.018-.808 1.171-.482.151-.99-.034-1.292-.472l-2.962-4.29v3.844c0 .58-.47 1.05-1.05 1.05-.58 0-1.05-.47-1.05-1.05v-7.212c0-.46.298-.865.737-1.002.44-.136.916.028 1.177.406l3.119 4.517-.038-3.924c-.006-.58.46-1.054 1.04-1.06zm-17.037.001l.125.001c.55.031 1.01.43 1.121.97l1.348 7.05c.109.57-.265 1.12-.835 1.228-.568.11-1.119-.264-1.228-.834l-.644-3.37-.97 3.404-.012.037c-.161.499-.623.836-1.147.838-.529 0-.99-.331-1.157-.827l-.011-.037-1.006-3.408-.605 3.352c-.103.571-.65.95-1.22.847-.57-.103-.95-.65-.846-1.22l1.27-7.036c.106-.552.562-.956 1.112-.993.55-.036 1.056.302 1.231.824l.012.038 1.199 4.063 1.155-4.053.011-.036c.17-.524.674-.869 1.222-.837zm25.9-.001c.58 0 1.05.47 1.05 1.05v4.966c0 1.256-.69 2.294-1.94 2.924-.507.255-1.066.385-1.661.385-.699 0-1.336-.185-1.902-.546-1.074-.686-1.618-1.614-1.618-2.758v-4.971c0-.58.47-1.05 1.05-1.05.58 0 1.05.47 1.05 1.05v4.971c0 .354.109.643.649.988.226.145.477.215.768.216.27 0 .505-.053.72-.16.69-.349.784-.726.784-1.049v-4.966c0-.58.47-1.05 1.05-1.05zm-17.619.033c.58 0 1.05.47 1.05 1.05 0 .58-.47 1.05-1.05 1.05h-1.966v1.48h1.744c.58 0 1.05.47 1.05 1.05 0 .58-.47 1.05-1.05 1.05h-1.744v1.48h1.966c.58 0 1.05.47 1.05 1.05 0 .58-.47 1.05-1.05 1.05h-3.016c-.58 0-1.05-.47-1.05-1.05v-7.16c0-.58.47-1.05 1.05-1.05zM7.93 59.448H4.082c-.662 0-1.201.54-1.201 1.202 0 .663.539 1.202 1.201 1.202H7.93c.649 0 1.202-.55 1.202-1.202 0-.662-.539-1.202-1.202-1.202zm40.032-16.477c.773 0 1.4.627 1.4 1.4 0 .773-.627 1.4-1.4 1.4H16.925c-.773 0-1.4-.627-1.4-1.4 0-.773.627-1.4 1.4-1.4zm-40.032.09H4.082c-.662 0-1.201.54-1.201 1.203 0 .662.539 1.201 1.201 1.201H7.93c.647 0 1.202-.55 1.202-1.201 0-.663-.539-1.202-1.202-1.202zm24.537-19.588c.773 0 1.4.627 1.4 1.4v.77c5.224.45 7.878 3.407 9.2 5.92.649 1.234 1.033 2.464 1.26 3.477l.482-.325c.641-.432 1.512-.263 1.944.378.432.642.263 1.512-.379 1.944l-2.333 1.572c-.23.154-.507.24-.783.24H21.676c-.272 0-.546-.083-.772-.233l-2.38-1.572c-.645-.426-.822-1.295-.396-1.94.426-.645 1.294-.822 1.94-.396l.533.353c.227-1.017.612-2.256 1.265-3.498 1.322-2.513 3.977-5.47 9.2-5.92v-.77c0-.773.628-1.4 1.4-1.4zm0 4.908c-3.825 0-6.557 1.509-8.122 4.485-.603 1.147-.921 2.311-1.088 3.183h18.43c-.48-2.568-2.307-7.668-9.22-7.668zM7.93 26.676l-3.848-.001c-.662 0-1.201.54-1.201 1.202 0 .663.539 1.202 1.201 1.202H7.93c.663 0 1.202-.54 1.202-1.202 0-.331-.134-.632-.352-.85-.218-.217-.518-.351-.85-.351zM48.75 7.768c.773 0 1.4.627 1.4 1.4v7.068c0 .773-.627 1.4-1.4 1.4h-31.73c-.774 0-1.4-.627-1.4-1.4V9.168c0-.773.626-1.4 1.4-1.4zm7.932 4.4c.61-.17 1.325.081 1.64.837.364.887-.163 1.68-.868 1.908-.624.202-1.393-.055-1.717-.837-.379-.912.21-1.702.945-1.907zm-9.332-1.6h-28.93v4.268h28.93v-4.268zm-39.419-.28H4.082c-.662 0-1.201.54-1.201 1.202 0 .663.539 1.202 1.201 1.202H7.93c.663 0 1.202-.54 1.202-1.202 0-.65-.552-1.201-1.202-1.201z" transform="translate(-1057 -1344) translate(207 1306) translate(850 38)"/>
                </g>
            </g>
        </g>
    </g>
</svg>
