<svg xmlns="http://www.w3.org/2000/svg" width="46" height="79" viewBox="0 0 46 79">
    <g fill="none" fill-rule="evenodd">
        <g fill="#2E2A66" fill-rule="nonzero" stroke="#2E2A66">
            <g>
                <g>
                    <path d="M38.7 0c3.102 0 5.625 2.523 5.625 5.625h0v65.55c0 3.102-2.523 5.625-5.625 5.625h0-33c-3.102 0-5.625-2.523-5.625-5.625h0V5.625C.075 2.523 2.598 0 5.7 0h0zm3.375 11.25H2.325v49.8H5.7c.621 0 1.125.504 1.125 1.125S6.321 63.3 5.7 63.3h0-3.375v7.875c0 1.861 1.514 3.375 3.375 3.375h33c1.861 0 3.375-1.514 3.375-3.375h0V63.3H10.2c-.621 0-1.125-.504-1.125-1.125s.504-1.125 1.125-1.125h31.875v-49.8zM22.2 65.55c1.861 0 3.375 1.514 3.375 3.375S24.061 72.3 22.2 72.3s-3.375-1.514-3.375-3.375 1.514-3.375 3.375-3.375zm0 2.25c-.62 0-1.125.505-1.125 1.125s.505 1.125 1.125 1.125 1.125-.505 1.125-1.125S22.82 67.8 22.2 67.8zM38.7 2.25h-33c-1.861 0-3.375 1.514-3.375 3.375h0V9h39.75V5.625c0-1.861-1.514-3.375-3.375-3.375h0zm-12 2.25c.621 0 1.125.504 1.125 1.125S27.321 6.75 26.7 6.75h0-4.5c-.621 0-1.125-.504-1.125-1.125S21.579 4.5 22.2 4.5h0zm-9 0c.621 0 1.125.504 1.125 1.125S18.321 6.75 17.7 6.75s-1.125-.504-1.125-1.125S17.079 4.5 17.7 4.5z" transform="translate(-697 -1392) translate(207 1306) translate(491 87)"/>
                </g>
            </g>
        </g>
    </g>
</svg>
