<svg width="73" height="73" viewBox="0 0 73 73" fill="none" xmlns="http://www.w3.org/2000/svg">
<circle cx="30" cy="28" r="4" stroke="#E93B47" stroke-width="2"/>
<circle cx="43" cy="44" r="4" stroke="#E93B47" stroke-width="2"/>
<rect x="27.4005" y="44.3458" width="22.47" height="4.78526" transform="rotate(-53 27.4005 44.3458)" stroke="#E93B47" stroke-width="2"/>
<path d="M31.4128 9.98227L34.5666 12.0702C35.9078 12.9581 37.6419 12.9884 39.0133 12.1478L42.238 10.1712C43.3075 9.51566 44.709 9.91753 45.2686 11.0402L46.9559 14.4254C47.6734 15.8649 49.1601 16.7582 50.768 16.7159L54.549 16.6165C55.8031 16.5835 56.8158 17.6323 56.7391 18.8844L56.5078 22.6596C56.4094 24.265 57.2503 25.782 58.6639 26.5493L61.9881 28.3537C63.0906 28.9522 63.4433 30.3668 62.7508 31.4128L60.6628 34.5666C59.7749 35.9078 59.7447 37.6419 60.5852 39.0133L62.5618 42.238C63.2174 43.3075 62.8155 44.709 61.6928 45.2686L58.3077 46.9559C56.8682 47.6734 55.9749 49.1601 56.0172 50.768L56.1166 54.5491C56.1496 55.8031 55.1008 56.8158 53.8487 56.7391L50.0735 56.5078C48.468 56.4094 46.9511 57.2503 46.1837 58.6639L44.3793 61.9881C43.7809 63.0906 42.3662 63.4433 41.3202 62.7508L38.1664 60.6628C36.8253 59.7749 35.0911 59.7447 33.7198 60.5852L30.495 62.5618C29.4255 63.2174 28.024 62.8155 27.4644 61.6928L25.7771 58.3077C25.0596 56.8682 23.5729 55.9749 21.965 56.0172L18.184 56.1166C16.93 56.1496 15.9172 55.1008 15.9939 53.8487L16.2253 50.0735C16.3236 48.468 15.4828 46.9511 14.0692 46.1837L10.745 44.3793C9.64249 43.7809 9.28977 42.3662 9.98226 41.3202L12.0702 38.1664C12.9581 36.8253 12.9884 35.0911 12.1478 33.7198L10.1712 30.495C9.51566 29.4255 9.91752 28.024 11.0402 27.4644L14.4254 25.7771C15.8649 25.0596 16.7582 23.5729 16.7159 21.965L16.6165 18.184C16.5835 16.93 17.6323 15.9172 18.8844 15.9939L22.6596 16.2253C24.265 16.3236 25.782 15.4828 26.5493 14.0692L28.3537 10.745C28.9522 9.64249 30.3668 9.28978 31.4128 9.98227Z" stroke="#E93B47" stroke-width="2"/>
</svg>
