<svg width="52" height="52" viewBox="0 0 52 52" fill="none" xmlns="http://www.w3.org/2000/svg">
<path d="M8.66667 8.66667H21.6667V21.6667H8.66667V8.66667ZM43.3333 8.66667V21.6667H30.3333V8.66667H43.3333ZM30.3333 32.5H34.6667V28.1667H30.3333V23.8333H34.6667V28.1667H39V23.8333H43.3333V28.1667H39V32.5H43.3333V39H39V43.3333H34.6667V39H28.1667V43.3333H23.8333V34.6667H30.3333V32.5ZM34.6667 32.5V39H39V32.5H34.6667ZM8.66667 43.3333V30.3333H21.6667V43.3333H8.66667ZM13 13V17.3333H17.3333V13H13ZM34.6667 13V17.3333H39V13H34.6667ZM13 34.6667V39H17.3333V34.6667H13ZM8.66667 23.8333H13V28.1667H8.66667V23.8333ZM19.5 23.8333H28.1667V32.5H23.8333V28.1667H19.5V23.8333ZM23.8333 13H28.1667V21.6667H23.8333V13ZM4.33333 4.33333V13H0V4.33333C0 3.18406 0.456546 2.08186 1.2692 1.2692C2.08186 0.456546 3.18406 0 4.33333 0L13 0V4.33333H4.33333ZM47.6667 0C48.8159 0 49.9181 0.456546 50.7308 1.2692C51.5435 2.08186 52 3.18406 52 4.33333V13H47.6667V4.33333H39V0H47.6667ZM4.33333 39V47.6667H13V52H4.33333C3.18406 52 2.08186 51.5435 1.2692 50.7308C0.456546 49.9181 0 48.8159 0 47.6667V39H4.33333ZM47.6667 47.6667V39H52V47.6667C52 48.8159 51.5435 49.9181 50.7308 50.7308C49.9181 51.5435 48.8159 52 47.6667 52H39V47.6667H47.6667Z" fill="#FF9401"/>
</svg>
