<svg width="56" height="56" viewBox="0 0 56 56" fill="none" xmlns="http://www.w3.org/2000/svg">
<path d="M27.665 0C12.4105 0 0 12.4105 0 27.665V39.1266C0 41.9595 2.48155 44.264 5.533 44.264H8.2995C9.03322 44.264 9.73689 43.9725 10.2557 43.4537C10.7745 42.9349 11.066 42.2312 11.066 41.4975V27.2694C11.066 26.5357 10.7745 25.832 10.2557 25.3132C9.73689 24.7944 9.03322 24.5029 8.2995 24.5029H5.78752C7.32569 13.7965 16.5381 5.533 27.665 5.533C38.7919 5.533 48.0043 13.7965 49.5425 24.5029H47.0305C46.2968 24.5029 45.5931 24.7944 45.0743 25.3132C44.5555 25.832 44.264 26.5357 44.264 27.2694V44.264C44.264 47.3154 41.7824 49.797 38.731 49.797H33.198V47.0305H22.132V55.33H38.731C44.8339 55.33 49.797 50.3669 49.797 44.264C52.8484 44.264 55.33 41.9595 55.33 39.1266V27.665C55.33 12.4105 42.9195 0 27.665 0Z" fill="#2E2A66"/>
</svg>
